name analog
datacolumns 19
datarows 23
range 0.0 0.011
endheader
time	ground_force_vx	ground_force_vy	ground_force_vz	ground_force_px	ground_force_py	ground_force_pz	l_ground_force_vx	l_ground_force_vy	l_ground_force_vz	l_ground_force_px	l_ground_force_py	l_ground_force_pz	ground_torque_x	ground_torque_y	ground_torque_z	l_ground_torque_x	l_ground_torque_y	l_ground_torque_z
0.0	-0.0	-0.0	-0.0	-4.37443208694458	23.51680374145508	-247.23829650878903	-2.712439775466919	-30.738903045654297	-292.6423034667969	-0.0	-0.0	-0.0	-0.0	-0.0	-0.0	74688.96875	-5935.26513671875	-335.04803466796875
0.0005	-0.0	-0.0	-0.0	-3.6336669921875	22.930456161499023	-244.4005126953125	-3.487014055252075	-31.163969039916992	-289.4467163085937	-0.0	-0.0	-0.0	-0.0	-0.0	-0.0	73936.03125	-5961.1318359375	-332.13671875
0.001	-0.0	-0.0	-0.0	-2.989797115325928	22.62931632995605	-241.6690216064453	-3.9131267070770255	-30.643693923950195	-285.9552001953125	-0.0	-0.0	-0.0	-0.0	-0.0	-0.0	73102.4765625	-5979.0703125	-357.30499267578125
0.0015	-0.0	-0.0	-0.0	-2.4508509635925293	22.155925750732425	-234.4933013916016	-4.622466087341309	-30.168794631958008	-282.6108093261719	-0.0	-0.0	-0.0	-0.0	-0.0	-0.0	72319.875	-5991.90185546875	-616.7325439453125
0.002	-0.0	-0.0	-0.0	-2.8922505378723145	22.32510757446289	-230.18093872070312	-5.308581352233887	-29.75525665283203	-280.01959228515625	-0.0	-0.0	-0.0	-0.0	-0.0	-0.0	71475.2890625	-6039.640625	-760.711181640625
0.0025	-0.0	-0.0	-0.0	-2.995720863342285	22.141742706298828	-228.8385162353516	-5.542728900909424	-29.448204040527344	-277.1357727050781	-0.0	-0.0	-0.0	-0.0	-0.0	-0.0	70768.53125	-5967.17333984375	-812.3509521484375
0.003	-0.0	-0.0	-0.0	-3.4273664951324463	22.630714416503903	-226.10177612304688	-5.877729892730713	-29.04353904724121	-273.8246765136719	-0.0	-0.0	-0.0	-0.0	-0.0	-0.0	70034.8046875	-6382.376953125	-940.7450561523438
0.0035	-0.0	-0.0	-0.0	-3.933362245559693	22.75093460083008	-224.59036254882807	-6.587228298187256	-28.579275131225582	-272.2812805175781	-0.0	-0.0	-0.0	-0.0	-0.0	-0.0	69616.703125	-6320.6611328125	-978.4468994140624
0.004	-0.0	-0.0	-0.0	-4.8468828201293945	22.854576110839844	-223.0928649902344	-7.222609996795654	-28.969512939453125	-270.7958984375	-0.0	-0.0	-0.0	-0.0	-0.0	-0.0	68972.390625	-6530.73974609375	-1154.7081298828125
0.0045000000000000005	-0.0	-0.0	-0.0	-4.839649200439453	23.753293991088867	-222.50335693359372	-7.46646785736084	-29.293405532836918	-270.854248046875	-0.0	-0.0	-0.0	-0.0	-0.0	-0.0	69292.953125	-6486.0771484375	-1206.7398681640625
0.005	-0.0	-0.0	-0.0	-4.758232116699219	23.99110221862793	-222.47157287597656	-7.791632652282715	-29.80817604064941	-270.24334716796875	-0.0	-0.0	-0.0	-0.0	-0.0	-0.0	69095.5859375	-6804.90576171875	-1305.9923095703125
0.0055	-0.0	-0.0	-0.0	-5.010966777801514	24.221651077270508	-222.8565368652344	-7.836660861968994	-30.154359817504883	-270.7967224121094	-0.0	-0.0	-0.0	-0.0	-0.0	-0.0	69406.75	-7204.72509765625	-1412.4771728515625
0.006	-0.0	-0.0	-0.0	-4.795718193054199	24.28672981262207	-224.2086639404297	-8.035916328430176	-30.544189453125	-272.3382568359375	-0.0	-0.0	-0.0	-0.0	-0.0	-0.0	69572.828125	-7365.80126953125	-1380.1600341796875
0.006500000000000001	-0.0	-0.0	-0.0	-4.832827091217041	25.13477325439453	-223.1249237060547	-7.717838287353516	-31.0892333984375	-273.73486328125	-0.0	-0.0	-0.0	-0.0	-0.0	-0.0	69977.4765625	-7454.24755859375	-1294.0675048828125
0.007	-0.0	-0.0	-0.0	-4.444940567016602	25.208332061767575	-222.4639892578125	-7.216495037078857	-31.88412857055664	-275.6856384277344	-0.0	-0.0	-0.0	-0.0	-0.0	-0.0	71040.3203125	-8069.6640625	-1222.37939453125
0.0075	-0.0	-0.0	-0.0	-4.717723369598389	25.84781646728516	-223.9992828369141	-6.809775352478027	-33.47392272949219	-279.9792785644531	-0.0	-0.0	-0.0	-0.0	-0.0	-0.0	71752.59375	-8381.146484375	-1041.15380859375
0.008	-0.0	-0.0	-0.0	-4.8173675537109375	26.780651092529297	-225.1013641357422	-6.684818744659424	-34.99602127075195	-284.2094116210937	-0.0	-0.0	-0.0	-0.0	-0.0	-0.0	73082.2578125	-8951.525390625	-949.0333251953124
0.0085	-0.0	-0.0	-0.0	-4.8494086265563965	27.64643096923828	-229.9835662841797	-6.835351943969727	-36.35688781738281	-289.5456237792969	-0.0	-0.0	-0.0	-0.0	-0.0	-0.0	74582.9375	-9464.3681640625	-1036.3934326171875
0.009000000000000001	-0.0	-0.0	-0.0	-5.291605949401856	28.598859786987305	-235.21783447265625	-6.600929260253906	-37.62082290649414	-295.8744201660156	-0.0	-0.0	-0.0	-0.0	-0.0	-0.0	75996.0234375	-9832.8740234375	-986.3811645507812
0.0095	-0.0	-0.0	-0.0	-5.818836688995361	30.478748321533203	-244.1271209716797	-6.407272815704346	-38.17498016357422	-300.8568420410156	-0.0	-0.0	-0.0	-0.0	-0.0	-0.0	77437.453125	-10190.939453125	-1040.3668212890625
0.01	-0.0	-0.0	-0.0	-6.228310585021973	31.337541580200195	-251.09690856933597	-6.407088279724121	-39.041786193847656	-305.8568115234375	-0.0	-0.0	-0.0	-0.0	-0.0	-0.0	78694.890625	-10713.1689453125	-1064.8221435546875
0.0105	-0.0	-0.0	-0.0	-5.815263748168945	32.466339111328125	-256.6836853027344	-6.121044158935547	-39.21161651611328	-310.24090576171875	-0.0	-0.0	-0.0	-0.0	-0.0	-0.0	79961.4375	-11265.0048828125	-1099.8009033203125
0.011	-0.0	-0.0	-0.0	-5.054361343383789	33.510231018066406	-263.3287353515625	-6.370586395263672	-39.51569747924805	-313.7453918457031	-0.0	-0.0	-0.0	-0.0	-0.0	-0.0	81049.109375	-11325.2978515625	-1206.677001953125
